<mxfile host="app.diagrams.net" agent="Mozilla/5.0 (Windows NT 10.0; Win64; x64; rv:133.0) Gecko/20100101 Firefox/133.0" version="25.0.3">
  <diagram id="C5RBs43oDa-KdzZeNtuy" name="Page-1">
    <mxGraphModel dx="1114" dy="695" grid="1" gridSize="10" guides="1" tooltips="1" connect="1" arrows="1" fold="1" page="1" pageScale="1" pageWidth="827" pageHeight="1169" math="0" shadow="0">
      <root>
        <mxCell id="WIyWlLk6GJQsqaUBKTNV-0" />
        <mxCell id="WIyWlLk6GJQsqaUBKTNV-1" parent="WIyWlLk6GJQsqaUBKTNV-0" />
        <mxCell id="WC1tpi_VTrEwO41_VIQL-12" value="" style="edgeStyle=orthogonalEdgeStyle;rounded=0;orthogonalLoop=1;jettySize=auto;html=1;" edge="1" parent="WIyWlLk6GJQsqaUBKTNV-1" source="WIyWlLk6GJQsqaUBKTNV-3" target="WC1tpi_VTrEwO41_VIQL-8">
          <mxGeometry relative="1" as="geometry">
            <Array as="points">
              <mxPoint x="700" y="310" />
              <mxPoint x="700" y="310" />
            </Array>
          </mxGeometry>
        </mxCell>
        <mxCell id="WIyWlLk6GJQsqaUBKTNV-3" value="Citizens" style="rounded=1;whiteSpace=wrap;html=1;fontSize=12;glass=0;strokeWidth=1;shadow=0;" parent="WIyWlLk6GJQsqaUBKTNV-1" vertex="1">
          <mxGeometry x="480" y="300" width="120" height="40" as="geometry" />
        </mxCell>
        <mxCell id="WC1tpi_VTrEwO41_VIQL-16" style="edgeStyle=orthogonalEdgeStyle;rounded=0;orthogonalLoop=1;jettySize=auto;html=1;entryX=0.137;entryY=0.416;entryDx=0;entryDy=0;entryPerimeter=0;exitX=1;exitY=0.5;exitDx=0;exitDy=0;" edge="1" parent="WIyWlLk6GJQsqaUBKTNV-1" source="WC1tpi_VTrEwO41_VIQL-2" target="WC1tpi_VTrEwO41_VIQL-14">
          <mxGeometry relative="1" as="geometry">
            <Array as="points">
              <mxPoint x="600" y="545" />
              <mxPoint x="620" y="545" />
              <mxPoint x="620" y="569" />
            </Array>
          </mxGeometry>
        </mxCell>
        <mxCell id="WC1tpi_VTrEwO41_VIQL-2" value="Administrators" style="rounded=1;whiteSpace=wrap;html=1;" vertex="1" parent="WIyWlLk6GJQsqaUBKTNV-1">
          <mxGeometry x="480" y="565" width="120" height="40" as="geometry" />
        </mxCell>
        <mxCell id="WC1tpi_VTrEwO41_VIQL-7" value="" style="edgeStyle=orthogonalEdgeStyle;rounded=0;orthogonalLoop=1;jettySize=auto;html=1;" edge="1" parent="WIyWlLk6GJQsqaUBKTNV-1" source="WC1tpi_VTrEwO41_VIQL-5" target="WIyWlLk6GJQsqaUBKTNV-3">
          <mxGeometry relative="1" as="geometry" />
        </mxCell>
        <mxCell id="WC1tpi_VTrEwO41_VIQL-5" value="Submit service requests, feedback, and queries " style="shape=parallelogram;html=1;strokeWidth=2;perimeter=parallelogramPerimeter;whiteSpace=wrap;rounded=1;arcSize=12;size=0.23;" vertex="1" parent="WIyWlLk6GJQsqaUBKTNV-1">
          <mxGeometry x="30" y="240" width="410" height="190" as="geometry" />
        </mxCell>
        <mxCell id="WC1tpi_VTrEwO41_VIQL-8" value="&lt;span style=&quot;font-size:12.0pt;line-height:&lt;br/&gt;107%;font-family:&amp;quot;Times New Roman&amp;quot;,serif;mso-fareast-font-family:&amp;quot;Times New Roman&amp;quot;;&lt;br/&gt;mso-font-kerning:0pt;mso-ligatures:none;mso-ansi-language:EN-GB;mso-fareast-language:&lt;br/&gt;IT;mso-bidi-language:AR-SA&quot; lang=&quot;EN-GB&quot;&gt;Receive service updates, responses, and information&lt;/span&gt;" style="shape=parallelogram;html=1;strokeWidth=2;perimeter=parallelogramPerimeter;whiteSpace=wrap;rounded=1;arcSize=12;size=0.23;" vertex="1" parent="WIyWlLk6GJQsqaUBKTNV-1">
          <mxGeometry x="610" y="240" width="500" height="190" as="geometry" />
        </mxCell>
        <mxCell id="WC1tpi_VTrEwO41_VIQL-15" style="edgeStyle=orthogonalEdgeStyle;rounded=0;orthogonalLoop=1;jettySize=auto;html=1;exitX=1;exitY=0.5;exitDx=0;exitDy=0;" edge="1" parent="WIyWlLk6GJQsqaUBKTNV-1" source="WC1tpi_VTrEwO41_VIQL-13" target="WC1tpi_VTrEwO41_VIQL-2">
          <mxGeometry relative="1" as="geometry" />
        </mxCell>
        <mxCell id="WC1tpi_VTrEwO41_VIQL-13" value="&lt;span style=&quot;font-size:12.0pt;line-height:&lt;br/&gt;107%;font-family:&amp;quot;Times New Roman&amp;quot;,serif;mso-fareast-font-family:&amp;quot;Times New Roman&amp;quot;;&lt;br/&gt;mso-font-kerning:0pt;mso-ligatures:none;mso-ansi-language:EN-GB;mso-fareast-language:&lt;br/&gt;IT;mso-bidi-language:AR-SA&quot; lang=&quot;EN-GB&quot;&gt;Manage services, update content &lt;/span&gt;" style="shape=parallelogram;html=1;strokeWidth=2;perimeter=parallelogramPerimeter;whiteSpace=wrap;rounded=1;arcSize=12;size=0.23;" vertex="1" parent="WIyWlLk6GJQsqaUBKTNV-1">
          <mxGeometry x="30" y="490" width="410" height="190" as="geometry" />
        </mxCell>
        <mxCell id="WC1tpi_VTrEwO41_VIQL-14" value="&lt;span style=&quot;font-size:12.0pt;line-height:&lt;br/&gt;107%;font-family:&amp;quot;Times New Roman&amp;quot;,serif;mso-fareast-font-family:&amp;quot;Times New Roman&amp;quot;;&lt;br/&gt;mso-font-kerning:0pt;mso-ligatures:none;mso-ansi-language:EN-GB;mso-fareast-language:&lt;br/&gt;IT;mso-bidi-language:AR-SA&quot; lang=&quot;EN-GB&quot;&gt;Monitor portal performance and feedback&lt;/span&gt;" style="shape=parallelogram;html=1;strokeWidth=2;perimeter=parallelogramPerimeter;whiteSpace=wrap;rounded=1;arcSize=12;size=0.23;" vertex="1" parent="WIyWlLk6GJQsqaUBKTNV-1">
          <mxGeometry x="590" y="490" width="510" height="190" as="geometry" />
        </mxCell>
        <mxCell id="WC1tpi_VTrEwO41_VIQL-17" value="&lt;p style=&quot;mso-margin-top-alt:auto;mso-margin-bottom-alt:auto;&lt;br/&gt;line-height:normal;mso-outline-level:3&quot; class=&quot;MsoNormal&quot;&gt;&lt;b&gt;&lt;span style=&quot;font-size:&lt;br/&gt;13.5pt;font-family:&amp;quot;Times New Roman&amp;quot;,serif;mso-fareast-font-family:&amp;quot;Times New Roman&amp;quot;;&lt;br/&gt;mso-font-kerning:0pt;mso-ligatures:none;mso-ansi-language:EN-GB;mso-fareast-language:&lt;br/&gt;IT&quot; lang=&quot;EN-GB&quot;&gt;Preliminary Context Diagram (Level 0 DFD)&lt;/span&gt;&lt;/b&gt;&lt;/p&gt;&lt;br/&gt;&lt;div&gt;&lt;br/&gt;&lt;/div&gt;" style="text;html=1;align=center;verticalAlign=middle;whiteSpace=wrap;rounded=0;" vertex="1" parent="WIyWlLk6GJQsqaUBKTNV-1">
          <mxGeometry x="470" y="210" width="160" height="30" as="geometry" />
        </mxCell>
        <mxCell id="WC1tpi_VTrEwO41_VIQL-22" value="" style="edgeStyle=orthogonalEdgeStyle;rounded=0;orthogonalLoop=1;jettySize=auto;html=1;" edge="1" parent="WIyWlLk6GJQsqaUBKTNV-1" source="WC1tpi_VTrEwO41_VIQL-18" target="WC1tpi_VTrEwO41_VIQL-20">
          <mxGeometry relative="1" as="geometry" />
        </mxCell>
        <mxCell id="WC1tpi_VTrEwO41_VIQL-18" value="Support Staff" style="rounded=1;whiteSpace=wrap;html=1;" vertex="1" parent="WIyWlLk6GJQsqaUBKTNV-1">
          <mxGeometry x="480" y="820" width="120" height="40" as="geometry" />
        </mxCell>
        <mxCell id="WC1tpi_VTrEwO41_VIQL-21" value="" style="edgeStyle=orthogonalEdgeStyle;rounded=0;orthogonalLoop=1;jettySize=auto;html=1;" edge="1" parent="WIyWlLk6GJQsqaUBKTNV-1" source="WC1tpi_VTrEwO41_VIQL-19" target="WC1tpi_VTrEwO41_VIQL-18">
          <mxGeometry relative="1" as="geometry" />
        </mxCell>
        <mxCell id="WC1tpi_VTrEwO41_VIQL-19" value="Process requests, provide support " style="shape=parallelogram;html=1;strokeWidth=2;perimeter=parallelogramPerimeter;whiteSpace=wrap;rounded=1;arcSize=12;size=0.23;" vertex="1" parent="WIyWlLk6GJQsqaUBKTNV-1">
          <mxGeometry x="30" y="750" width="410" height="190" as="geometry" />
        </mxCell>
        <mxCell id="WC1tpi_VTrEwO41_VIQL-20" value="&lt;span style=&quot;font-size:12.0pt;line-height:&lt;br/&gt;107%;font-family:&amp;quot;Times New Roman&amp;quot;,serif;mso-fareast-font-family:&amp;quot;Times New Roman&amp;quot;;&lt;br/&gt;mso-font-kerning:0pt;mso-ligatures:none;mso-ansi-language:EN-GB;mso-fareast-language:&lt;br/&gt;IT;mso-bidi-language:AR-SA&quot; lang=&quot;EN-GB&quot;&gt;Send resolutions or updates&lt;/span&gt;" style="shape=parallelogram;html=1;strokeWidth=2;perimeter=parallelogramPerimeter;whiteSpace=wrap;rounded=1;arcSize=12;size=0.23;" vertex="1" parent="WIyWlLk6GJQsqaUBKTNV-1">
          <mxGeometry x="630" y="760" width="460" height="180" as="geometry" />
        </mxCell>
      </root>
    </mxGraphModel>
  </diagram>
</mxfile>
